<?xml version="1.0" encoding="utf-8"?>
<!-- Generator: Adobe Illustrator 16.0.0, SVG Export Plug-In . SVG Version: 6.00 Build 0)  -->
<!DOCTYPE svg PUBLIC "-//W3C//DTD SVG 1.1//EN" "http://www.w3.org/Graphics/SVG/1.1/DTD/svg11.dtd">
<svg version="1.1" id="Layer_1" xmlns="http://www.w3.org/2000/svg" xmlns:xlink="http://www.w3.org/1999/xlink" x="0px" y="0px"
	 width="122px" height="31.729px" viewBox="0 0 122 31.729" enable-background="new 0 0 122 31.729" xml:space="preserve">
<g>
	<path fill="#F5F5F5" d="M16.643,31.358V17.66c0-1.729-0.624-3.205-1.87-4.429c-1.231-1.224-2.708-1.836-4.432-1.836
		c-1.739,0-3.224,0.612-4.455,1.836c-1.231,1.224-1.847,2.7-1.847,4.429v13.698H0.092V17.66c0-2.693,1.031-5.063,3.093-7.113
		c2.062-2.05,4.447-3.075,7.155-3.075c2.693,0,5.07,1.025,7.132,3.075c2.062,2.05,3.094,4.42,3.094,7.113v13.698H16.643z"/>
	<path fill="#F5F5F5" d="M29.831,3.939V0.038h3.924v3.901H29.831z M29.831,31.358V7.862h3.924v23.496H29.831z"/>
	<path fill="#F5F5F5" d="M58.923,31.358l-9.048-8.972l-1.939,1.927v7.044h-3.924V0.038h3.924v18.746L58.923,7.862h5.563
		L52.667,19.61l11.818,11.748H58.923z"/>
	<path fill="#F5F5F5" d="M86.699,31.358l-9.048-8.972l-1.939,1.927v7.044h-3.923V0.038h3.923v18.746L86.699,7.862h5.563
		L80.444,19.61l11.818,11.748H86.699z"/>
	<path fill="#F5F5F5" d="M118.076,31.358v-3.533c-2.324,2.585-5.217,3.877-8.679,3.877c-3.278,0-6.071-1.193-8.378-3.58
		c-2.293-2.401-3.439-5.239-3.439-8.512c0-3.335,1.192-6.188,3.577-8.559c2.4-2.386,5.278-3.579,8.632-3.579
		c3.37,0,6.248,1.193,8.633,3.579c2.385,2.371,3.577,5.224,3.577,8.559v11.748H118.076z M118.076,19.61
		c0-2.249-0.816-4.176-2.447-5.782c-1.631-1.622-3.578-2.433-5.84-2.433c-2.247,0-4.185,0.811-5.816,2.433
		c-1.631,1.606-2.447,3.533-2.447,5.782c0,2.248,0.816,4.183,2.447,5.805c1.631,1.606,3.569,2.41,5.816,2.41s4.193-0.803,5.84-2.41
		C117.26,23.793,118.076,21.858,118.076,19.61z"/>
</g>
</svg>
