<?xml version="1.0" encoding="utf-8"?>
<!-- Generator: Adobe Illustrator 16.0.0, SVG Export Plug-In . SVG Version: 6.00 Build 0)  -->
<!DOCTYPE svg PUBLIC "-//W3C//DTD SVG 1.1//EN" "http://www.w3.org/Graphics/SVG/1.1/DTD/svg11.dtd">
<svg version="1.1" id="Layer_1" xmlns="http://www.w3.org/2000/svg" xmlns:xlink="http://www.w3.org/1999/xlink" x="0px" y="0px"
	 width="123.787px" height="31.652px" viewBox="0 0 123.787 31.652" enable-background="new 0 0 123.787 31.652"
	 xml:space="preserve">
<g>
	<path d="M16.727,31.652V17.809c0-1.747-0.634-3.238-1.901-4.475c-1.252-1.237-2.755-1.855-4.508-1.855
		c-1.769,0-3.279,0.618-4.531,1.855c-1.252,1.237-1.878,2.728-1.878,4.475v13.844h-4.015V17.809c0-2.721,1.049-5.117,3.146-7.188
		c2.097-2.072,4.523-3.107,7.278-3.107c2.739,0,5.157,1.035,7.254,3.107c2.098,2.071,3.146,4.467,3.146,7.188v13.844H16.727z"/>
	<path d="M30.142,3.942V0h3.991v3.942H30.142z M30.142,31.652V7.907h3.991v23.745H30.142z"/>
	<path d="M59.733,31.652l-9.203-9.067l-1.972,1.948v7.119h-3.991V0h3.991v18.945L59.733,7.907h5.658L53.371,19.779l12.021,11.873
		H59.733z"/>
	<path d="M87.987,31.652l-9.204-9.067l-1.972,1.948v7.119H72.82V0h3.991v18.945L87.987,7.907h5.658L81.625,19.779l12.021,11.873
		H87.987z"/>
	<path d="M119.902,31.652v-3.571c-2.363,2.612-5.306,3.919-8.828,3.919c-3.334,0-6.175-1.206-8.522-3.618
		c-2.332-2.427-3.498-5.294-3.498-8.603c0-3.37,1.213-6.253,3.639-8.649c2.442-2.412,5.369-3.617,8.781-3.617
		c3.428,0,6.355,1.206,8.781,3.617c2.426,2.396,3.639,5.279,3.639,8.649v11.873H119.902z M119.902,19.779
		c0-2.272-0.83-4.22-2.489-5.843c-1.659-1.639-3.639-2.458-5.94-2.458c-2.285,0-4.257,0.819-5.916,2.458
		c-1.659,1.623-2.489,3.57-2.489,5.843c0,2.273,0.83,4.229,2.489,5.867c1.659,1.624,3.631,2.435,5.916,2.435s4.265-0.812,5.94-2.435
		C119.073,24.008,119.902,22.052,119.902,19.779z"/>
</g>
</svg>
